<?xml version="1.0" encoding="UTF-8"?>
<svg id="Calque_1" data-name="Calque 1" xmlns="http://www.w3.org/2000/svg" viewBox="0 0 999 999">
  <defs>
    <style>
      .cls-1 {
        stroke-width: 0px;
      }
    </style>
  </defs>
  <path class="cls-1" d="m847.71,368.62c20.92,0,41.97,5.27,60.87,15.25,18.87,9.96,35.12,24.34,46.99,41.59,21.15,30.73,28.32,67.41,20.19,103.29-3.99,17.61-11.43,33.96-22.11,48.57-11.07,15.15-25.1,27.67-41.69,37.22-19.84,11.42-42.9,16.97-74.76,18-70.41,2.27-133.14,38.6-171.29,97.18-12.73-19.48-29.14-35.73-48.85-48.36,31.99-20.68,57.57-49.15,76.33-85.04,13.31-25.47,20.43-53.37,23.08-90.47l.07-.97-.02-.97c-.72-28.16,7.08-55.03,22.57-77.7,15.49-22.68,37.67-39.7,64.14-49.22,13.41-4.82,24.53-7.32,36.07-8.09,2.78-.19,5.61-.28,8.4-.28m0-20c-3.24,0-6.48.11-9.74.33-15.05,1.01-28.42,4.52-41.5,9.23-62.09,22.34-101.63,80.27-99.94,146.25-2.11,29.56-7.41,56.9-20.86,82.64-22.42,42.9-56.73,75.88-102.79,94.91,44.01,15.64,76.37,46.95,92.47,91.31,30.29-71.56,96.26-118.28,172.51-120.73,30.18-.97,58.36-5.85,84.09-20.65,77.23-44.45,101.04-143.75,50.11-217.76-27.88-40.5-75.03-65.51-124.34-65.51h0Z"/>
  <path class="cls-1" d="m681.95,425.67c14.99-44.25,47.66-76.55,91.61-92.17-60.64-24.28-104.41-75.87-117.84-138.72-3.68-17.23-4.55-33.42-5.52-51-3.32-60.32-40.03-111.34-96.41-133.51-52.41-20.61-112.24-9.58-154.37,27.64-41.82,36.94-60.76,94.12-47,149.16,16.37,65.5,74.26,113.99,142.6,115.38,49.88,1.02,95.95,16.33,134.31,49.91,22.79,19.94,40.12,44.17,52.62,73.32Z"/>
  <path class="cls-1" d="m164.05,649.84c82.51-7.67,137.13-72.92,138.99-154.41.32-14.09.78-26.86,4.21-41.09,14.73-61,59.14-114.35,119.13-136.68-47.11-18.61-75.37-45-92.61-92.45-20.26,47.75-55.25,84.66-101.6,105.51-27.54,12.39-56.9,17.29-87.2,17.18-10.8-.04-20.57,2.66-30.13,5C44.88,370.07-2.48,432.35.1,504.64c1.46,40.83,17.96,78.47,48.61,106.03,32.02,28.8,72.64,43.14,115.35,39.17Z"/>
  <path class="cls-1" d="m533.79,995.09c44.56-10,80.01-40.09,100.05-80.29,27.61-55.39,18.94-122.04-23-168.47-30.95-34.26-75.05-50.86-120.9-50.38-19.25.2-36.93-3.75-54.63-9.82-52.33-17.95-97.74-59.23-118.18-112.42l-14.62,29.62c-17.85,28.99-42.99,50.23-76.38,62.51,31.05,12.42,56.33,31.7,77.13,57.32,29.65,36.53,45.14,80.77,43.84,128.41,2.99,96.19,91.51,164.89,186.7,143.53Z"/>
</svg>